<svg width="44" height="44" viewBox="0 0 44 44" fill="none" xmlns="http://www.w3.org/2000/svg">
<path d="M6.53125 20.625C7.57123 20.625 8.51251 20.2077 9.20807 19.5377L13.0239 21.4454C13.0048 21.6009 12.9766 21.7536 12.9766 21.9141C12.9766 24.0464 14.7114 25.7812 16.8438 25.7812C18.9761 25.7812 20.7109 24.0464 20.7109 21.9141C20.7109 21.3189 20.5646 20.7616 20.3232 20.2574L25.4996 15.081C26.0038 15.3224 26.5611 15.4688 27.1562 15.4688C29.2886 15.4688 31.0234 13.7339 31.0234 11.6016C31.0234 11.2001 30.9445 10.8204 30.8304 10.4562L35.328 7.0838C35.9417 7.49368 36.6772 7.73438 37.4688 7.73438C39.6011 7.73438 41.3359 5.99951 41.3359 3.86719C41.3359 1.73486 39.6011 0 37.4688 0C35.3364 0 33.6016 1.73486 33.6016 3.86719C33.6016 4.26868 33.6805 4.64835 33.7946 5.01257L29.297 8.38495C28.6833 7.97507 27.9478 7.73438 27.1562 7.73438C25.0239 7.73438 23.2891 9.46924 23.2891 11.6016C23.2891 12.1967 23.4354 12.754 23.6768 13.2582L18.5004 18.4346C17.9962 18.1932 17.4389 18.0469 16.8438 18.0469C15.8038 18.0469 14.8625 18.4641 14.1669 19.1342L10.3511 17.2264C10.3702 17.071 10.3984 16.9183 10.3984 16.7578C10.3984 14.6255 8.66357 12.8906 6.53125 12.8906C4.39893 12.8906 2.66406 14.6255 2.66406 16.7578C2.66406 18.8901 4.39893 20.625 6.53125 20.625Z" fill="url(#paint0_linear)"/>
<path d="M42.7109 41.4219H41.3359V14.1797C41.3359 13.4673 40.7592 12.8906 40.0469 12.8906H34.8906C34.1783 12.8906 33.6016 13.4673 33.6016 14.1797V41.4219H31.0234V21.9141C31.0234 21.2017 30.4467 20.625 29.7344 20.625H24.5781C23.8658 20.625 23.2891 21.2017 23.2891 21.9141V41.4219H20.7109V32.2266C20.7109 31.5142 20.1342 30.9375 19.4219 30.9375H14.2656C13.5533 30.9375 12.9766 31.5142 12.9766 32.2266V41.4219H10.3984V27.0703C10.3984 26.358 9.82172 25.7812 9.10938 25.7812H3.95312C3.24078 25.7812 2.66406 26.358 2.66406 27.0703V41.4219H1.28906C0.576721 41.4219 0 41.9986 0 42.7109C0 43.4233 0.576721 44 1.28906 44H42.7109C43.4233 44 44 43.4233 44 42.7109C44 41.9986 43.4233 41.4219 42.7109 41.4219Z" fill="url(#paint1_linear)"/>
<defs>
<linearGradient id="paint0_linear" x1="22" y1="0" x2="22" y2="25.7812" gradientUnits="userSpaceOnUse">
<stop stop-color="#FDF192"/>
<stop offset="1" stop-color="#B07E43"/>
</linearGradient>
<linearGradient id="paint1_linear" x1="22" y1="12.8906" x2="22" y2="44" gradientUnits="userSpaceOnUse">
<stop stop-color="#FDF192"/>
<stop offset="1" stop-color="#B07E43"/>
</linearGradient>
</defs>
</svg>
