<svg width="17" height="25" viewBox="0 0 17 25" fill="none" xmlns="http://www.w3.org/2000/svg">
<path d="M7.83666 3.77796L0.271583 11.3432C0.0964708 11.5181 0 11.7517 0 12.0008C0 12.2498 0.0964708 12.4834 0.271583 12.6584L0.82857 13.2155C1.19151 13.578 1.78139 13.578 2.14378 13.2155L8.49648 6.86281L14.8562 13.2226C15.0313 13.3975 15.2648 13.4941 15.5137 13.4941C15.7629 13.4941 15.9963 13.3975 16.1716 13.2226L16.7284 12.6654C16.9035 12.4903 17 12.2569 17 12.0078C17 11.7588 16.9035 11.5252 16.7284 11.3502L9.15643 3.77796C8.98076 3.60257 8.74622 3.50624 8.49689 3.50679C8.24659 3.50624 8.01219 3.60257 7.83666 3.77796Z" fill="url(#paint0_linear)"/>
<path d="M7.83666 3.81312L0.271583 11.3783C0.0964708 11.5533 0 11.7869 0 12.0359C0 12.285 0.0964708 12.5186 0.271583 12.6935L0.82857 13.2507C1.19151 13.6132 1.78139 13.6132 2.14378 13.2507L8.49648 6.89797L14.8562 13.2577C15.0313 13.4327 15.2648 13.5293 15.5137 13.5293C15.7629 13.5293 15.9963 13.4327 16.1716 13.2577L16.7284 12.7006C16.9035 12.5255 17 12.292 17 12.043C17 11.7939 16.9035 11.5604 16.7284 11.3854L9.15643 3.81312C8.98076 3.63773 8.74622 3.5414 8.49689 3.54195C8.24659 3.5414 8.01219 3.63773 7.83666 3.81312Z" fill="url(#paint1_linear)"/>
<path d="M7.83666 11.778L0.271583 19.3432C0.0964708 19.5181 0 19.7517 0 20.0008C0 20.2498 0.0964708 20.4834 0.271583 20.6584L0.82857 21.2155C1.19151 21.578 1.78139 21.578 2.14378 21.2155L8.49648 14.8628L14.8562 21.2226C15.0313 21.3975 15.2648 21.4941 15.5137 21.4941C15.7629 21.4941 15.9963 21.3975 16.1716 21.2226L16.7284 20.6654C16.9035 20.4903 17 20.2569 17 20.0078C17 19.7588 16.9035 19.5252 16.7284 19.3502L9.15643 11.778C8.98076 11.6026 8.74622 11.5062 8.49689 11.5068C8.24659 11.5062 8.01219 11.6026 7.83666 11.778Z" fill="url(#paint2_linear)"/>
<path d="M7.83666 11.8131L0.271583 19.3783C0.0964708 19.5533 0 19.7869 0 20.0359C0 20.285 0.0964708 20.5186 0.271583 20.6935L0.82857 21.2507C1.19151 21.6132 1.78139 21.6132 2.14378 21.2507L8.49648 14.898L14.8562 21.2577C15.0313 21.4327 15.2648 21.5293 15.5137 21.5293C15.7629 21.5293 15.9963 21.4327 16.1716 21.2577L16.7284 20.7006C16.9035 20.5255 17 20.292 17 20.043C17 19.7939 16.9035 19.5604 16.7284 19.3854L9.15643 11.8131C8.98076 11.6377 8.74622 11.5414 8.49689 11.5419C8.24659 11.5414 8.01219 11.6377 7.83666 11.8131Z" fill="url(#paint3_linear)"/>
<defs>
<linearGradient id="paint0_linear" x1="0" y1="8.50047" x2="17" y2="8.50047" gradientUnits="userSpaceOnUse">
<stop stop-color="#B07C41"/>
<stop offset="1" stop-color="#FBF08F"/>
</linearGradient>
<linearGradient id="paint1_linear" x1="0" y1="8.53562" x2="17" y2="8.53562" gradientUnits="userSpaceOnUse">
<stop stop-color="#B07C41"/>
<stop offset="1" stop-color="#FBF08F"/>
</linearGradient>
<linearGradient id="paint2_linear" x1="0" y1="16.5005" x2="17" y2="16.5005" gradientUnits="userSpaceOnUse">
<stop stop-color="#B07C41"/>
<stop offset="1" stop-color="#FBF08F"/>
</linearGradient>
<linearGradient id="paint3_linear" x1="0" y1="16.5356" x2="17" y2="16.5356" gradientUnits="userSpaceOnUse">
<stop stop-color="#B07C41"/>
<stop offset="1" stop-color="#FBF08F"/>
</linearGradient>
</defs>
</svg>
