<svg width="50" height="50" viewBox="0 0 50 50" fill="none" xmlns="http://www.w3.org/2000/svg">
<circle opacity="0.1" cx="25" cy="25" r="25" fill="#FEFEFE"/>
<path d="M21.1653 33.3142C21.5059 33.6667 22.0727 33.6667 22.4252 33.3142C22.7658 32.9737 22.7658 32.4068 22.4252 32.067L16.0367 25.6785L37.118 25.6785C37.6094 25.6777 38 25.2871 38 24.7957C38 24.3042 37.6094 23.9009 37.118 23.9009L16.0367 23.9009L22.4252 17.5243C22.7658 17.1718 22.7658 16.6042 22.4252 16.2644C22.0727 15.9119 21.5051 15.9119 21.1653 16.2644L13.2644 24.1653C12.9119 24.5059 12.9119 25.0727 13.2644 25.4125L21.1653 33.3142Z" fill="#FEF592"/>
</svg>
