<svg width="44" height="44" viewBox="0 0 44 44" fill="none" xmlns="http://www.w3.org/2000/svg">
<g clip-path="url(#clip0)">
<path d="M27.5001 11.9167C26.4881 11.9167 25.6668 11.0954 25.6668 10.0834V7.33341H18.3334V10.0834C18.3334 11.0954 17.5121 11.9167 16.5001 11.9167C15.4881 11.9167 14.6667 11.0954 14.6667 10.0834V7.33341C14.6667 5.31125 16.3112 3.66675 18.3334 3.66675H25.6668C27.6889 3.66675 29.3334 5.31125 29.3334 7.33341V10.0834C29.3334 11.0954 28.5121 11.9167 27.5001 11.9167Z" fill="#333333"/>
<path d="M33 22.9168V24.6034C33 25.3551 32.3767 25.9784 31.625 25.9784C30.8733 25.9784 30.25 25.3551 30.25 24.6034V22.9168H13.75V24.6034C13.75 25.3551 13.1267 25.9784 12.375 25.9784C11.6233 25.9784 11 25.3551 11 24.6034V22.9168H0V35.2918C0 38.0784 2.255 40.3334 5.04167 40.3334H38.9583C41.745 40.3334 44 38.0784 44 35.2918V22.9168H33ZM38.9583 9.16675H5.04167C2.255 9.16675 0 11.4217 0 14.2084V20.1667H11V17.8751C11 17.1234 11.6233 16.5001 12.375 16.5001C13.1267 16.5001 13.75 17.1234 13.75 17.8751V20.1667H30.25V17.8751C30.25 17.1234 30.8733 16.5001 31.625 16.5001C32.3767 16.5001 33 17.1234 33 17.8751V20.1667H44V14.2084C44 11.4217 41.745 9.16675 38.9583 9.16675Z" fill="#333333"/>
</g>
<defs>
<clipPath id="clip0">
<rect width="44" height="44" fill="white"/>
</clipPath>
</defs>
</svg>
