<svg width="44" height="44" viewBox="0 0 44 44" fill="none" xmlns="http://www.w3.org/2000/svg">
<g clip-path="url(#clip0)">
<path d="M43.098 0.00530503C34.5088 -0.148695 24.7133 4.34114 18.513 11.306C12.5877 11.4178 6.81818 13.847 2.57035 18.0948C2.32285 18.3386 2.23485 18.7035 2.34302 19.0335C2.45302 19.3653 2.73902 19.6055 3.08368 19.655L10.1493 20.667L9.27668 21.6441C8.95218 22.0071 8.96868 22.559 9.31335 22.9036L21.0962 34.6865C21.274 34.8643 21.5087 34.9541 21.7452 34.9541C21.9633 34.9541 22.1815 34.8771 22.3557 34.7213L23.3328 33.8486L24.3448 40.9143C24.3943 41.259 24.6657 41.512 24.9938 41.622C25.0782 41.6495 25.1662 41.6623 25.256 41.6623C25.5163 41.6623 25.7822 41.5486 25.9655 41.3671C30.1547 37.178 32.5838 31.4085 32.6957 25.4831C39.6678 19.27 44.1943 9.47814 43.9945 0.899972C43.9817 0.412305 43.5875 0.0181384 43.098 0.00530503V0.00530503ZM34.65 15.8306C33.7572 16.7235 32.5838 17.1708 31.4087 17.1708C30.2335 17.1708 29.0602 16.7235 28.1673 15.8306C26.3817 14.0431 26.3817 11.1355 28.1673 9.34797C29.9548 7.56047 32.8625 7.56047 34.65 9.34797C36.4375 11.1355 36.4375 14.045 34.65 15.8306Z" fill="#333333"/>
<path d="M4.99398 30.9924C3.03232 32.954 0.33915 41.8164 0.0384832 42.8192C-0.0586835 43.1419 0.0311498 43.4921 0.26765 43.7304C0.44365 43.9064 0.676483 43.9999 0.91665 43.9999C1.00465 43.9999 1.09265 43.9871 1.18065 43.9614C2.18348 43.6607 11.0458 40.9676 13.0075 39.0059C15.2167 36.7967 15.2167 33.2015 13.0075 30.9924C10.7965 28.7832 7.20315 28.785 4.99398 30.9924V30.9924Z" fill="#333333"/>
</g>
<defs>
<clipPath id="clip0">
<rect width="44" height="44" fill="white"/>
</clipPath>
</defs>
</svg>
