<svg width="52" height="49" viewBox="0 0 52 49" fill="none" xmlns="http://www.w3.org/2000/svg">
<g clip-path="url(#clip0)" filter="url(#filter0_d)">
<path d="M31.5001 11.9167C30.4881 11.9167 29.6667 11.0954 29.6667 10.0834V7.33341H22.3334V10.0834C22.3334 11.0954 21.5121 11.9167 20.5001 11.9167C19.4881 11.9167 18.6667 11.0954 18.6667 10.0834V7.33341C18.6667 5.31125 20.3112 3.66675 22.3334 3.66675H29.6667C31.6889 3.66675 33.3334 5.31125 33.3334 7.33341V10.0834C33.3334 11.0954 32.5121 11.9167 31.5001 11.9167Z" fill="url(#paint0_linear)"/>
<path d="M37 22.9167V24.6034C37 25.3551 36.3767 25.9784 35.625 25.9784C34.8733 25.9784 34.25 25.3551 34.25 24.6034V22.9167H17.75V24.6034C17.75 25.3551 17.1267 25.9784 16.375 25.9784C15.6233 25.9784 15 25.3551 15 24.6034V22.9167H4V35.2918C4 38.0784 6.255 40.3334 9.04167 40.3334H42.9583C45.745 40.3334 48 38.0784 48 35.2918V22.9167H37ZM42.9583 9.16675H9.04167C6.255 9.16675 4 11.4217 4 14.2084V20.1667H15V17.8751C15 17.1234 15.6233 16.5001 16.375 16.5001C17.1267 16.5001 17.75 17.1234 17.75 17.8751V20.1667H34.25V17.8751C34.25 17.1234 34.8733 16.5001 35.625 16.5001C36.3767 16.5001 37 17.1234 37 17.8751V20.1667H48V14.2084C48 11.4217 45.745 9.16675 42.9583 9.16675Z" fill="url(#paint1_linear)"/>
</g>
<defs>
<filter id="filter0_d" x="0" y="0" width="52" height="52" filterUnits="userSpaceOnUse" color-interpolation-filters="sRGB">
<feFlood flood-opacity="0" result="BackgroundImageFix"/>
<feColorMatrix in="SourceAlpha" type="matrix" values="0 0 0 0 0 0 0 0 0 0 0 0 0 0 0 0 0 0 127 0"/>
<feOffset dy="4"/>
<feGaussianBlur stdDeviation="2"/>
<feColorMatrix type="matrix" values="0 0 0 0 0 0 0 0 0 0 0 0 0 0 0 0 0 0 0.25 0"/>
<feBlend mode="normal" in2="BackgroundImageFix" result="effect1_dropShadow"/>
<feBlend mode="normal" in="SourceGraphic" in2="effect1_dropShadow" result="shape"/>
</filter>
<linearGradient id="paint0_linear" x1="26.6176" y1="3.66675" x2="23.7864" y2="13.3268" gradientUnits="userSpaceOnUse">
<stop stop-color="#AD783E"/>
<stop offset="1" stop-color="#FFF494"/>
</linearGradient>
<linearGradient id="paint1_linear" x1="27.8526" y1="9.16675" x2="14.9802" y2="44.0441" gradientUnits="userSpaceOnUse">
<stop stop-color="#AD783E"/>
<stop offset="1" stop-color="#FFF494"/>
</linearGradient>
<clipPath id="clip0">
<rect width="44" height="44" fill="white" transform="translate(4)"/>
</clipPath>
</defs>
</svg>
