<svg width="44" height="32" viewBox="0 0 44 32" fill="none" xmlns="http://www.w3.org/2000/svg">
<path d="M33 13.9167V15.6034C33 16.3551 32.3767 16.9784 31.625 16.9784C30.8733 16.9784 30.25 16.3551 30.25 15.6034V13.9167H13.75V15.6034C13.75 16.3551 13.1267 16.9784 12.375 16.9784C11.6233 16.9784 11 16.3551 11 15.6034V13.9167H0V26.2918C0 29.0784 2.255 31.3334 5.04167 31.3334H38.9583C41.745 31.3334 44 29.0784 44 26.2918V13.9167H33ZM38.9583 0.166748H5.04167C2.255 0.166748 0 2.42175 0 5.20842V11.1667H11V8.87508C11 8.12342 11.6233 7.50008 12.375 7.50008C13.1267 7.50008 13.75 8.12342 13.75 8.87508V11.1667H30.25V8.87508C30.25 8.12342 30.8733 7.50008 31.625 7.50008C32.3767 7.50008 33 8.12342 33 8.87508V11.1667H44V5.20842C44 2.42175 41.745 0.166748 38.9583 0.166748Z" fill="url(#paint0_linear)"/>
<defs>
<linearGradient id="paint0_linear" x1="22" y1="0.166748" x2="22" y2="31.3334" gradientUnits="userSpaceOnUse">
<stop stop-color="#FDF192"/>
<stop offset="1" stop-color="#B07E43"/>
</linearGradient>
</defs>
</svg>
