<?xml version="1.0" encoding="utf-8"?>
<!-- Generator: Adobe Illustrator 23.0.2, SVG Export Plug-In . SVG Version: 6.00 Build 0)  -->
<svg version="1.1" id="Layer_1" xmlns="http://www.w3.org/2000/svg" xmlns:xlink="http://www.w3.org/1999/xlink" x="0px" y="0px"
	 viewBox="0 0 162 32" style="enable-background:new 0 0 162 32;" xml:space="preserve">
<style type="text/css">
	.st0{fill:#FFFFFF;}
	.st1{fill:#F47721;}
</style>
<g>
	<path class="st0" d="M38.1,7.4h-2.7c-1.1,0-1.9,0.9-1.9,1.9v19.7c0,1.1,0.9,1.9,1.9,1.9h2.7c1.1,0,1.9-0.9,1.9-1.9V9.3
		C40.1,8.3,39.2,7.4,38.1,7.4z"/>
	<path class="st0" d="M28.6,7.4c-1.7,0-3.1,1-3.8,2.4l0,0l-7.1,15c-0.2,0.4-0.5,0.9-0.8,0.9c-0.3,0-0.6-0.6-0.8-0.9L9,9.8
		C8.3,8.4,6.9,7.4,5.2,7.4H1.1l11.2,21.8c1.1,2.1,3.4,2.1,4.6,2.1c1.6,0,3.5-0.1,4.5-2.1L32.7,7.4H28.6z"/>
	<path class="st0" d="M152.7,3.8c0-1.1-0.9-1.9-1.9-1.9h-2.7c-1.1,0-1.9,0.9-1.9,1.9v19.5c0,3,1.1,4.7,2.9,6
		c1.8,1.2,3.9,1.7,7.9,1.7h2.1c1.1,0,1.9-0.9,1.9-1.9V27h-1.6c-1.2,0-3.6,0-5.1-1c-1.9-1.2-1.7-3.5-1.7-5.1V3.8z"/>
	<path class="st0" d="M111.1,27c-1.2,0-3.6,0-5.1-1c-1.9-1.2-1.7-3.5-1.7-5.1v-9.5h6.3c1.1,0,1.9-0.9,1.9-1.9V7.4h-8.2V3.8h0
		c0-1.1-0.9-1.9-1.9-1.9h-2.7c-1.1,0-1.9,0.9-1.9,1.9v3.6H84.2V3.8c0-1.1-0.9-1.9-1.9-1.9h-2.7c-1.1,0-1.9,0.9-1.9,1.9v3.6h-4.1v2.1
		c0,1.1,0.9,1.9,1.9,1.9h2.1v11.9c0,3,1.1,4.7,2.9,6c1.8,1.2,3.9,1.7,7.9,1.7h2.1c1.1,0,1.9-0.9,1.9-1.9V27H91c-1.2,0-3.6,0-5.1-1
		c-1.9-1.2-1.7-3.5-1.7-5.1v-9.5h13.6v11.9c0,3,1.1,4.7,2.9,6c1.8,1.2,3.9,1.7,7.9,1.7h2.1c1.1,0,1.9-0.9,1.9-1.9V27H111.1z"/>
	<path class="st0" d="M71.2,29.1V27H56.8c-2.4,0-5.1-0.3-6-2.8c-0.2-0.7-0.4-2.2-0.4-3.2h17.1c1.2,0,2.3-0.2,3.2-0.9
		c1.2-1,1.4-2.4,1.4-3.6c0-3-0.7-5.9-4.2-7.7c-2.7-1.4-6.3-1.5-9.7-1.5c-2.8,0-7.8,0-11,2.2c-3.2,2.2-3.5,5.5-3.5,9.9
		c0,3.1,0.2,6.4,2.1,8.6c2.4,2.8,6,3,9,3h14.4C70.4,31,71.2,30.1,71.2,29.1z M65.4,15.5c0,0.6-0.2,1.4-1.4,1.4h-9.3
		c-2.4,0-4.3,1.1-4.3,2.4v-2.4c0.1-1.6,0-2.8,1.3-4.1c1.8-1.6,4.5-1.6,6.2-1.6c1.8,0,3.9,0.1,5.6,1.1C64.5,13,65.4,14.1,65.4,15.5z"
		/>
	<path class="st0" d="M141.6,29.1V27h-14.4c-2.4,0-5.1-0.3-6-2.8c-0.2-0.7-0.4-2.2-0.4-3.2H138c1.2,0,2.3-0.2,3.2-0.9
		c1.2-1,1.4-2.4,1.4-3.6c0-3-0.7-5.9-4.2-7.7c-2.7-1.4-6.3-1.5-9.7-1.5c-2.8,0-7.8,0-11,2.2c-3.2,2.2-3.5,5.5-3.5,9.9
		c0,3.1,0.2,6.4,2.1,8.6c2.4,2.8,6,3,9,3h14.4C140.7,31,141.6,30.1,141.6,29.1z M135.8,15.5c0,0.6-0.2,1.4-1.4,1.4h-9.3
		c-2.4,0-4.3,1.1-4.3,2.4v-2.4c0.1-1.6,0-2.8,1.3-4.1c1.8-1.6,4.5-1.6,6.2-1.6c1.8,0,3.9,0.1,5.6,1.1
		C134.9,13,135.8,14.1,135.8,15.5z"/>
	<path class="st1" d="M38.1,0.8h-2.7c-1.1,0-1.9,0.9-1.9,1.9v0.5v4.4c0-1.2,1.3-2.5,3.3-2.5h1.3c1.1,0,1.9-0.9,1.9-1.9V2.7
		C40.1,1.7,39.2,0.8,38.1,0.8z"/>
</g>
</svg>
