<svg width="34" height="34" viewBox="0 0 34 34" fill="none" xmlns="http://www.w3.org/2000/svg">
<path d="M17 0C7.62632 0 0 7.62632 0 17C0 26.3737 7.62632 34 17 34C26.3737 34 34 26.3737 34 17C34 7.62632 26.3736 0 17 0ZM18.1058 27.0865C17.2981 27.2212 15.6911 27.5574 14.875 27.625C14.1842 27.6822 13.5323 27.2868 13.135 26.7192C12.7365 26.1516 12.6411 25.4253 12.8776 24.7737L16.091 15.9375H12.75C12.7471 14.0963 14.1282 12.7425 15.8945 12.2229C16.7375 11.9749 18.308 11.6355 19.125 11.6876C19.6144 11.7187 20.4676 12.0258 20.865 12.5934C21.2634 13.161 21.3589 13.8873 21.1223 14.5389L17.9089 23.375H21.2489C21.2496 25.2141 19.92 26.7842 18.1058 27.0865ZM19.125 10.625C17.9513 10.625 16.9999 9.67351 16.9999 8.5C16.9999 7.32636 17.9513 6.37498 19.125 6.37498C20.2986 6.37498 21.25 7.32636 21.25 8.5C21.25 9.67357 20.2987 10.625 19.125 10.625Z" fill="url(#paint0_linear)"/>
<defs>
<linearGradient id="paint0_linear" x1="17" y1="0" x2="17" y2="41" gradientUnits="userSpaceOnUse">
<stop stop-color="#FEF592"/>
<stop offset="1" stop-color="#B58548"/>
</linearGradient>
</defs>
</svg>
