<svg width="80" height="99" viewBox="0 0 80 99" fill="none" xmlns="http://www.w3.org/2000/svg">
<path d="M74.2471 53.5116C74.9942 50.655 75.3901 47.6647 75.3901 44.5812C75.3901 28.3669 64.4442 14.6576 49.5596 10.4796C49.586 10.1949 49.6 9.90106 49.6 9.60723C49.5984 4.3117 45.2903 0 40 0C34.7089 0 30.4057 4.3117 30.4057 9.6064C30.4057 9.90023 30.4189 10.1891 30.4461 10.4739C15.5608 14.6568 4.61075 28.362 4.61075 44.5812C4.61075 47.6647 5.0066 50.6592 5.75375 53.5157C2.36929 54.9973 0 58.3837 0 62.3125C0 67.6072 4.30398 71.9147 9.59838 71.9147C11.759 71.9147 13.7597 71.1942 15.3645 69.9793C21.7401 76.1819 30.4313 80 39.9992 80C49.567 80 58.2583 76.1819 64.6338 69.9793C66.2387 71.1942 68.2393 71.9147 70.4049 71.9147C75.6952 71.9147 79.9992 67.6072 79.9992 62.3125C80 58.3788 77.6299 54.9973 74.2471 53.5116ZM74.5002 44.5812C74.5002 47.5533 74.1225 50.4413 73.4109 53.1914C72.4641 52.8753 71.4547 52.7061 70.4057 52.7061C68.8182 52.7061 67.3206 53.0932 65.9995 53.7832L45.1748 17.6917C47.3619 16.2852 48.9452 14.0122 49.4343 11.3644C63.8875 15.4805 74.5002 28.811 74.5002 44.5812ZM14.774 54.2272L22.634 40.6021C22.3404 41.8839 22.1854 43.2144 22.1854 44.5804C22.1854 52.9058 27.9119 59.914 35.63 61.8668H19.1794C19.0376 58.6594 17.3124 55.8606 14.774 54.2272ZM18.2904 61.8676H10.3678L14.3287 55.0022C16.6056 56.4788 18.1486 58.9929 18.2904 61.8676ZM23.0744 44.5812C23.0744 35.2414 30.668 27.6414 40 27.6414C49.3361 27.6414 56.9297 35.2414 56.9297 44.5812C56.9297 53.921 49.3361 61.5209 40 61.5209C30.668 61.5209 23.0744 53.921 23.0744 44.5812ZM40 19.2136C41.5875 19.2136 43.0851 18.8265 44.4062 18.1365L52.1376 31.5388C48.9543 28.5667 44.6858 26.7509 40 26.7509C35.3093 26.7509 31.0374 28.5708 27.8583 31.5479L35.5946 18.1365C36.9141 18.8265 38.4125 19.2136 40 19.2136ZM36.0383 17.3623L39.9992 10.497L43.9609 17.3623C42.7742 17.9764 41.4267 18.3231 39.9992 18.3231C38.5725 18.3239 37.2258 17.9764 36.0383 17.3623ZM57.8187 44.5812C57.8187 43.2193 57.6678 41.8938 57.3742 40.6161L65.226 54.2322C62.6876 55.8606 60.9624 58.6594 60.8197 61.8676H44.3699C52.093 59.914 57.8187 52.9058 57.8187 44.5812ZM65.6705 55.0022L69.6314 61.8676H61.7087C61.8514 58.9929 63.3944 56.4837 65.6705 55.0022ZM40 0.889742C44.8013 0.889742 48.7094 4.80114 48.7094 9.6064C48.7094 9.82017 48.7003 10.0339 48.683 10.2428C48.6649 10.5457 48.6294 10.8436 48.5717 11.1325C48.1445 13.5533 46.7178 15.6307 44.7303 16.9216L40.7777 10.0645L40.2573 9.16566L39.9992 8.71666L39.7411 9.16566L39.2207 10.0645L35.268 16.9166C33.2806 15.6266 31.8539 13.5525 31.4308 11.1325C31.3731 10.8387 31.3376 10.5407 31.3195 10.2378C31.3013 10.029 31.2931 9.81935 31.2931 9.60558C31.2947 4.80114 35.1979 0.889742 40 0.889742ZM5.49975 44.5812C5.49975 28.8118 16.1166 15.4805 30.5698 11.3644C31.0589 14.0122 32.6373 16.2861 34.8243 17.6917L14.0046 53.7823C12.6843 53.0923 11.1859 52.7052 9.59838 52.7052C8.5494 52.7052 7.53587 52.8744 6.58832 53.1905C5.87745 50.4413 5.49975 47.5533 5.49975 44.5812ZM15.4181 68.7866C15.1954 68.9872 14.9645 69.1737 14.7246 69.347C13.2839 70.4018 11.5149 71.0242 9.59838 71.0242C4.79713 71.0242 0.888999 67.1128 0.888999 62.3116C0.888999 58.7923 2.98779 55.7533 5.99291 54.3824C6.25928 54.2536 6.53554 54.1463 6.82006 54.0531C7.69174 53.7551 8.62939 53.595 9.59838 53.595C11.0209 53.595 12.3685 53.9375 13.5552 54.5557L9.74518 61.1636L9.22975 62.0583L8.82484 62.7565H18.2904C18.17 65.1468 17.0856 67.2828 15.4181 68.7866ZM40 79.1103C30.7084 79.1103 22.2604 75.4168 16.0498 69.4147C17.8773 67.7508 19.064 65.3919 19.1794 62.7582H60.8197C60.9352 65.3927 62.1227 67.7508 63.9494 69.4147C57.7387 75.4168 49.2916 79.1103 40 79.1103ZM70.4057 71.025C68.4892 71.025 66.7112 70.4018 65.2754 69.3429C65.0355 69.1696 64.8046 68.9822 64.5819 68.7866C62.9144 67.2778 61.8299 65.1426 61.7095 62.7573H71.1752L70.7702 62.0591L70.2548 61.1644L66.444 54.5565C67.6307 53.9425 68.9782 53.5958 70.4049 53.5958C71.3739 53.5958 72.3074 53.7559 73.1791 54.0497C73.4636 54.143 73.7391 54.2544 74.0063 54.3791C77.0163 55.7541 79.1102 58.7931 79.1102 62.3125C79.1102 67.1136 75.207 71.025 70.4057 71.025Z" fill="url(#paint0_linear)"/>
<g clip-path="url(#clip0)">
<path d="M1 90.3637H4.00944C5.83416 90.3637 7.08992 91.3218 7.08992 92.9594V92.9836C7.08992 94.7785 5.59734 95.6887 3.85581 95.6887H1.61634V98.8545H1V90.3637ZM3.89042 95.1068C5.43036 95.1068 6.47297 94.2942 6.47297 93.0203V92.9961C6.47297 91.6494 5.4425 90.9463 3.96146 90.9463H1.61634V95.1068H3.89042Z" fill="white"/>
<path d="M8.78345 90H9.36396V93.8211C9.7787 93.0931 10.4418 92.5229 11.5439 92.5229C13.0723 92.5229 13.9607 93.578 13.9607 95.0701V98.8545H13.3802V95.1795C13.3802 93.9056 12.6928 93.0688 11.4607 93.0688C10.276 93.0688 9.36396 93.9784 9.36396 95.2765V98.8545H8.78345V90Z" fill="white"/>
<path d="M16.0576 90.2424H16.7802V91.055H16.0576V90.2424ZM16.1287 92.6684H16.7092V98.8545H16.1287V92.6684Z" fill="white"/>
<path d="M18.5806 95.7739V95.7497C18.5806 93.9666 19.8126 92.523 21.4473 92.523C23.1415 92.523 24.2193 93.9299 24.2193 95.7615C24.2193 95.8709 24.2193 95.907 24.2078 96.004H19.1963C19.291 97.5446 20.3932 98.4417 21.5657 98.4417C22.5136 98.4417 23.1293 98.0171 23.6388 97.4712L24.0414 97.8349C23.4251 98.5145 22.6909 98.9994 21.5414 98.9994C19.9553 99 18.5806 97.7143 18.5806 95.7739ZM23.592 95.4705C23.4973 94.2209 22.8099 93.0688 21.4242 93.0688C20.2274 93.0688 19.2916 94.0997 19.1969 95.4705H23.592ZM21.2111 90.158H21.6847L22.8694 91.6376H22.3126L21.4358 90.8126L20.5589 91.6376H20.0258L21.2111 90.158Z" fill="white"/>
<path d="M25.7957 96.4528V92.6684H26.3762V96.344C26.3762 97.6179 27.0636 98.4547 28.2956 98.4547C29.4803 98.4547 30.3924 97.5452 30.3924 96.247V92.6684H30.9729V98.8545H30.3924V97.7025C29.9777 98.4305 29.3146 99.0006 28.2124 99.0006C26.684 99 25.7957 97.9449 25.7957 96.4528Z" fill="white"/>
<path d="M36.1497 90.3637H36.837L40.0833 98.175L43.3411 90.3637H43.9927L40.3438 98.9154H39.7991L36.1497 90.3637Z" fill="white"/>
<path d="M45.0229 96.4528V92.6684H45.6035V96.344C45.6035 97.6179 46.2908 98.4548 47.5229 98.4548C48.7076 98.4548 49.6197 97.5452 49.6197 96.247V92.6684H50.2002V98.8545H49.6197V97.7025C49.2049 98.4305 48.5419 99.0006 47.4397 99.0006C45.9113 99 45.0229 97.9449 45.0229 96.4528ZM45.9113 91.6376C46.1366 90.7641 46.4329 90.5092 46.9066 90.5092C47.345 90.5092 48.0202 91.0066 48.4228 91.0066C48.707 91.0066 48.8376 90.8729 49.0149 90.4004L49.4175 90.5098C49.1922 91.3833 48.8965 91.6376 48.4222 91.6376C47.9838 91.6376 47.3086 91.1402 46.906 91.1402C46.6218 91.1402 46.4912 91.2739 46.3139 91.7464L45.9113 91.6376Z" fill="white"/>
<path d="M56.0879 90.3637H56.6684L59.9972 95.3853L63.3261 90.3637H63.9066V98.8545H63.2903V91.4797L60.0088 96.3676H59.962L56.6799 91.4797V98.8545H56.0879V90.3637Z" fill="white"/>
<path d="M65.8262 95.7858V95.7615C65.8262 94.0269 67.1414 92.523 68.9419 92.523C70.7308 92.523 72.0339 94.0027 72.0339 95.7373V95.7615C72.0339 97.4961 70.7186 99 68.9182 99C67.1293 99 65.8262 97.5204 65.8262 95.7858ZM71.406 95.7858V95.7615C71.406 94.2576 70.316 93.0807 68.9182 93.0807C67.4845 93.0807 66.4541 94.2812 66.4541 95.7373V95.7615C66.4541 97.2654 67.544 98.4424 68.9419 98.4424C70.3756 98.4424 71.406 97.2412 71.406 95.7858ZM68.6929 90.158H69.1666L70.3513 91.6376H69.7944L68.9176 90.8126L68.0408 91.6376H67.5076L68.6929 90.158Z" fill="white"/>
<path d="M73.8228 92.6684H74.4033V93.8204C74.818 93.0924 75.4811 92.5223 76.5832 92.5223C78.1116 92.5223 79 93.5773 79 95.0695V98.8539H78.4195V95.1795C78.4195 93.9056 77.7321 93.0688 76.5 93.0688C75.3153 93.0688 74.4033 93.9783 74.4033 95.2765V98.8545H73.8228V92.6684Z" fill="white"/>
</g>
<defs>
<linearGradient id="paint0_linear" x1="0" y1="39.9999" x2="79.9997" y2="39.9999" gradientUnits="userSpaceOnUse">
<stop stop-color="#ECE99E"/>
<stop offset="0.0492" stop-color="#E5DF96"/>
<stop offset="0.126" stop-color="#D8C882"/>
<stop offset="0.221" stop-color="#C6A766"/>
<stop offset="0.3293" stop-color="#B07E43"/>
<stop offset="0.3464" stop-color="#AD783E"/>
<stop offset="0.4327" stop-color="#BB9153"/>
<stop offset="0.5375" stop-color="#CAAE6C"/>
<stop offset="0.6454" stop-color="#D7C580"/>
<stop offset="0.7563" stop-color="#E1D890"/>
<stop offset="0.8719" stop-color="#E9E49A"/>
<stop offset="1" stop-color="#ECE99E"/>
</linearGradient>
<clipPath id="clip0">
<rect width="78" height="9" fill="white" transform="translate(1 90)"/>
</clipPath>
</defs>
</svg>
